<?xml version="1.0" encoding="UTF-8" standalone="no"?>
<svg
   xmlns:dc="http://purl.org/dc/elements/1.1/"
   xmlns:cc="http://creativecommons.org/ns#"
   xmlns:rdf="http://www.w3.org/1999/02/22-rdf-syntax-ns#"
   xmlns:svg="http://www.w3.org/2000/svg"
   xmlns="http://www.w3.org/2000/svg"
   xmlns:sodipodi="http://sodipodi.sourceforge.net/DTD/sodipodi-0.dtd"
   xmlns:inkscape="http://www.inkscape.org/namespaces/inkscape"
   width="210mm"
   height="297mm"
   viewBox="0 0 210 297"
   version="1.1"
   id="svg8"
   inkscape:version="1.0.1 (3bc2e813f5, 2020-09-07)"
   sodipodi:docname="leafletIcon.svg">
  <defs
     id="defs2" />
  <sodipodi:namedview
     id="base"
     pagecolor="#ffffff"
     bordercolor="#666666"
     borderopacity="1.0"
     inkscape:pageopacity="0"
     inkscape:pageshadow="2"
     inkscape:zoom="0.98994949"
     inkscape:cx="262.08954"
     inkscape:cy="318.61771"
     inkscape:document-units="px"
     inkscape:current-layer="layer1"
     inkscape:document-rotation="0"
     showgrid="false"
     inkscape:window-width="1346"
     inkscape:window-height="1020"
     inkscape:window-x="152"
     inkscape:window-y="0"
     inkscape:window-maximized="0" />
  <metadata
     id="metadata5">
    <rdf:RDF>
      <cc:Work
         rdf:about="">
        <dc:format>image/svg+xml</dc:format>
        <dc:type
           rdf:resource="http://purl.org/dc/dcmitype/StillImage" />
        <dc:title></dc:title>
      </cc:Work>
    </rdf:RDF>
  </metadata>
  <g
     inkscape:label="Layer 1"
     inkscape:groupmode="layer"
     id="layer1">
    <g
       id="g1010"
       transform="translate(-49.712132,24.588797)">
      <circle
         style="fill:#ffffff;fill-opacity:1;stroke:#000004;stroke-width:0.79375;stroke-miterlimit:4;stroke-dasharray:none;stroke-opacity:1"
         id="path136"
         cx="113.98473"
         cy="40.840424"
         r="5.5900064" />
      <g
         id="g134"
         transform="matrix(0.01806236,0,0,0.01806236,109.51069,36.3664)">
        <g
           id="g75">
	<g
   id="g73">
		<g
   id="g71">
			<path
   d="m 487.083,225.514 -75.08,-75.08 v -86.73 c 0,-15.682 -12.708,-28.391 -28.413,-28.391 -15.669,0 -28.377,12.709 -28.377,28.391 V 93.645 L 299.31,37.74 C 271.671,10.116 223.616,10.165 196.04,37.79 L 8.312,225.514 c -11.082,11.104 -11.082,29.071 0,40.158 11.087,11.101 29.089,11.101 40.172,0 L 236.194,77.943 c 6.115,-6.083 16.893,-6.083 22.976,-0.018 l 187.742,187.747 c 5.567,5.551 12.825,8.312 20.081,8.312 7.271,0 14.541,-2.764 20.091,-8.312 11.086,-11.086 11.086,-29.053 -10e-4,-40.158 z"
   id="path67" />

			<path
   d="m 257.561,131.836 c -5.454,-5.451 -14.285,-5.451 -19.723,0 L 72.712,296.913 c -2.607,2.606 -4.085,6.164 -4.085,9.877 v 120.401 c 0,28.253 22.908,51.16 51.16,51.16 h 81.754 v -126.61 h 92.299 v 126.61 h 81.755 c 28.251,0 51.159,-22.907 51.159,-51.159 V 306.79 c 0,-3.713 -1.465,-7.271 -4.085,-9.877 z"
   id="path69" />

		</g>

	</g>

</g>
        <g
           id="g77">
</g>
        <g
           id="g79">
</g>
        <g
           id="g81">
</g>
        <g
           id="g83">
</g>
        <g
           id="g85">
</g>
        <g
           id="g87">
</g>
        <g
           id="g89">
</g>
        <g
           id="g91">
</g>
        <g
           id="g93">
</g>
        <g
           id="g95">
</g>
        <g
           id="g97">
</g>
        <g
           id="g99">
</g>
        <g
           id="g101">
</g>
        <g
           id="g103">
</g>
        <g
           id="g105">
</g>
      </g>
    </g>
    <g
       id="g986"
       transform="translate(20.045215,24.054257)">
      <circle
         style="fill:#ffffff;fill-opacity:1;stroke:#000004;stroke-width:0.79375;stroke-miterlimit:4;stroke-dasharray:none;stroke-opacity:1"
         id="circle982"
         cx="59.462757"
         cy="41.331436"
         r="5.5900064" />
      <path
         d="m 57.59916,44.960221 c -0.07182,0.287989 0.10305,0.579504 0.390696,0.651331 0.0438,0.01102 0.08761,0.01596 0.130908,0.01596 0.240488,0 0.459335,-0.162791 0.520589,-0.406642 l 0.423591,-1.694535 -0.885783,-0.885782 z m 0.249889,-3.291394 0.690772,-2.67027 c 0.03671,-0.141309 -0.05267,-0.284462 -0.200049,-0.319875 -0.736415,-0.176551 -1.482737,0.252911 -1.666844,0.959457 l -0.424099,1.646875 c -0.03671,0.141308 0.05267,0.284461 0.20005,0.319873 l 1.0667,0.255932 c 0.147523,0.03526 0.296718,-0.05073 0.33347,-0.191992 z m 4.567536,-1.94862 h -0.268517 c -0.148356,0 -0.26852,0.120162 -0.26852,0.268523 v 0.268518 H 61.29635 L 60.511264,39.47216 c -0.186119,-0.186454 -0.433996,-0.288991 -0.69748,-0.288991 -0.453466,0 -0.847017,0.307118 -0.957111,0.747155 l -0.451787,1.807821 a 0.53724285,0.53724285 0 0 0 0.14131,0.510019 l 1.453706,1.453703 v 1.388755 c 0,0.296549 0.240491,0.537042 0.537038,0.537042 0.296548,0 0.537046,-0.240493 0.537046,-0.537042 v -1.388755 c 0,-0.286814 -0.111773,-0.55651 -0.314673,-0.759411 l -0.785762,-0.785761 c 0.0024,-0.0081 0.0079,-0.01499 0.01039,-0.02362 l 0.333805,-1.335387 0.376432,0.376434 c 0.100701,0.1007 0.237308,0.157423 0.379622,0.157423 h 0.805562 v 4.027811 c 0,0.148356 0.120164,0.26852 0.268523,0.26852 h 0.268525 c 0.148355,0 0.268517,-0.120164 0.268517,-0.26852 v -5.370589 c 1.9e-4,-0.148358 -0.119995,-0.268521 -0.268355,-0.268521 z m -2.148162,-1.074086 c 0.444902,0 0.805563,-0.360652 0.805563,-0.80556 0,-0.444908 -0.360661,-0.805561 -0.805563,-0.805561 -0.444907,0 -0.805563,0.360653 -0.805563,0.805561 0,0.444908 0.360656,0.80556 0.805563,0.80556 z"
         id="path971"
         style="stroke-width:0.0167829" />
    </g>
  </g>
</svg>
